<?xml version="1.0" encoding="utf-8"?>
<!-- Generator: Adobe Illustrator 18.1.1, SVG Export Plug-In . SVG Version: 6.00 Build 0)  -->
<svg version="1.1" id="Layer_1" xmlns="http://www.w3.org/2000/svg" xmlns:xlink="http://www.w3.org/1999/xlink" x="0px" y="0px"
	 width="70px" height="70px" viewBox="0 0 70 70" enable-background="new 0 0 70 70" xml:space="preserve">
<rect x="36.8" y="6.6" fill="#FFFFFF" width="29.8" height="23"/>
<rect x="2.6" y="3.3" fill="#FFFFFF" width="29.8" height="32.8"/>
<rect x="2" y="37.2" fill="#FFFFFF" width="29.8" height="32.8"/>
<rect x="39.4" y="36.9" fill="#FFFFFF" width="26.3" height="29.5"/>
<g>
	<path fill="#3B5999" d="M33.1,0c0.5,0,1,0.2,1.4,0.6C34.8,1,35,1.4,35,1.9v31.1c0,0.5-0.2,1-0.6,1.4S33.6,35,33.1,35h-8.9V21.4h4.5
		l0.7-5.3h-5.2v-3.4c0-0.9,0.2-1.5,0.5-1.9c0.4-0.4,1.1-0.6,2.1-0.6l2.8,0V5.5c-1-0.1-2.3-0.2-4.1-0.2c-2.1,0-3.7,0.6-5,1.8
		c-1.2,1.2-1.9,2.9-1.9,5.2v3.9h-4.6v5.3h4.6V35H1.9c-0.5,0-1-0.2-1.4-0.6C0.2,34,0,33.6,0,33.1V1.9c0-0.5,0.2-1,0.6-1.4
		C1,0.2,1.4,0,1.9,0H33.1z"/>
</g>
<g>
	<path fill="#5788CE" d="M33.1,35c0.5,0,1,0.2,1.4,0.6c0.4,0.4,0.6,0.8,0.6,1.4v31.1c0,0.5-0.2,1-0.6,1.4C34,69.8,33.6,70,33.1,70
		h-8.9V56.4h4.5l0.7-5.3h-5.2v-3.4c0-0.9,0.2-1.5,0.5-1.9c0.4-0.4,1.1-0.6,2.1-0.6l2.8,0v-4.7c-1-0.1-2.3-0.2-4.1-0.2
		c-2.1,0-3.7,0.6-5,1.8c-1.2,1.2-1.9,2.9-1.9,5.2v3.9h-4.6v5.3h4.6V70H1.9c-0.5,0-1-0.2-1.4-0.6C0.2,69,0,68.6,0,68.1V36.9
		c0-0.5,0.2-1,0.6-1.4C1,35.2,1.4,35,1.9,35H33.1z"/>
</g>
<g>
	<path fill="#55ACEE" d="M70,6.6v21.9c0,1.8-0.6,3.4-1.9,4.6c-1.3,1.3-2.8,1.9-4.6,1.9H41.6c-1.8,0-3.4-0.6-4.6-1.9
		c-1.3-1.3-1.9-2.8-1.9-4.6V6.6c0-1.8,0.6-3.4,1.9-4.6C38.2,0.6,39.8,0,41.6,0h21.9c1.8,0,3.4,0.6,4.6,1.9C69.4,3.2,70,4.8,70,6.6z
		 M64.2,11c-0.9,0.4-1.8,0.6-2.8,0.8c1-0.6,1.7-1.5,2.1-2.7c-1,0.6-2,1-3.1,1.2c-0.9-1-2.1-1.5-3.5-1.5c-1.3,0-2.4,0.5-3.4,1.4
		c-0.9,0.9-1.4,2.1-1.4,3.4c0,0.4,0,0.8,0.1,1.1c-2-0.1-3.8-0.6-5.5-1.5c-1.7-0.9-3.2-2.1-4.4-3.5c-0.4,0.8-0.7,1.6-0.7,2.4
		c0,1.7,0.7,3.1,2.1,4c-0.7,0-1.5-0.2-2.3-0.6v0c0,1.1,0.4,2.2,1.1,3c0.8,0.9,1.7,1.4,2.8,1.7c-0.4,0.1-0.8,0.2-1.2,0.2
		c-0.2,0-0.5,0-0.9-0.1c0.3,1,0.9,1.7,1.7,2.4c0.8,0.6,1.7,0.9,2.8,1c-1.8,1.4-3.7,2.1-5.9,2.1c-0.4,0-0.8,0-1.1-0.1
		c2.2,1.4,4.7,2.1,7.3,2.1c1.7,0,3.3-0.3,4.8-0.8c1.5-0.5,2.8-1.3,3.8-2.2c1.1-0.9,2-1.9,2.7-3.1c0.8-1.2,1.3-2.4,1.7-3.7
		c0.4-1.3,0.6-2.6,0.6-3.8c0-0.3,0-0.5,0-0.6C62.7,12.8,63.5,12,64.2,11z"/>
</g>
<g>
	<path fill="#82CCF9" d="M70,41.6v21.9c0,1.8-0.6,3.4-1.9,4.6c-1.3,1.3-2.8,1.9-4.6,1.9H41.6c-1.8,0-3.4-0.6-4.6-1.9
		c-1.3-1.3-1.9-2.8-1.9-4.6V41.6c0-1.8,0.6-3.4,1.9-4.6c1.3-1.3,2.8-1.9,4.6-1.9h21.9c1.8,0,3.4,0.6,4.6,1.9
		C69.4,38.2,70,39.8,70,41.6z M64.2,46c-0.9,0.4-1.8,0.6-2.8,0.8c1-0.6,1.7-1.5,2.1-2.7c-1,0.6-2,1-3.1,1.2c-0.9-1-2.1-1.5-3.5-1.5
		c-1.3,0-2.4,0.5-3.4,1.4c-0.9,0.9-1.4,2.1-1.4,3.4c0,0.4,0,0.8,0.1,1.1c-2-0.1-3.8-0.6-5.5-1.5c-1.7-0.9-3.2-2.1-4.4-3.5
		c-0.4,0.8-0.7,1.6-0.7,2.4c0,1.7,0.7,3.1,2.1,4c-0.7,0-1.5-0.2-2.3-0.6v0c0,1.1,0.4,2.2,1.1,3c0.8,0.9,1.7,1.4,2.8,1.7
		c-0.4,0.1-0.8,0.2-1.2,0.2c-0.2,0-0.5,0-0.9-0.1c0.3,1,0.9,1.7,1.7,2.4c0.8,0.6,1.7,0.9,2.8,1c-1.8,1.4-3.7,2.1-5.9,2.1
		c-0.4,0-0.8,0-1.1-0.1c2.2,1.4,4.7,2.1,7.3,2.1c1.7,0,3.3-0.3,4.8-0.8c1.5-0.5,2.8-1.3,3.8-2.2c1.1-0.9,2-1.9,2.7-3.1
		c0.8-1.2,1.3-2.4,1.7-3.7c0.4-1.3,0.6-2.6,0.6-3.8c0-0.3,0-0.5,0-0.6C62.7,47.8,63.5,47,64.2,46z"/>
</g>
</svg>
