<?xml version="1.0" encoding="utf-8"?>
<!-- Generator: Adobe Illustrator 18.1.1, SVG Export Plug-In . SVG Version: 6.00 Build 0)  -->
<svg version="1.1" id="Layer_1" xmlns="http://www.w3.org/2000/svg" xmlns:xlink="http://www.w3.org/1999/xlink" x="0px" y="0px"
	 viewBox="0 0 612 792" enable-background="new 0 0 612 792" xml:space="preserve">
<text transform="matrix(1 0 0 1 183.834 418.207)" fill="#06305B" font-family="'TimesNewRomanPSMT'" font-size="21.5975">SOUTH CAROLINA CENTER</text>
<text transform="matrix(1 0 0 1 162.6667 440.0442)" fill="#06305B" font-family="'TimesNewRomanPSMT'" font-size="21.5975">FOR FATHERS AND  FAMILIES</text>
<g>
	<path fill="#06305B" stroke="#06305B" stroke-miterlimit="10" d="M431.1,316.9c0,0-5.4,13.4,0,23.4
		C431.1,340.3,437.7,329.4,431.1,316.9z"/>
	<path fill="#06305B" stroke="#06305B" stroke-miterlimit="10" d="M431.6,384.2c0,0,5.4-13.4,0-23.4
		C431.6,360.8,425,371.7,431.6,384.2z"/>
	<path fill="#06305B" stroke="#06305B" stroke-miterlimit="10" d="M401.5,350.3c0,0,10.5,3.4,18.6,2.1c0,0,4-2.6-0.7-4.8
		C419.5,347.6,410.2,346.7,401.5,350.3z"/>
	<path fill="#06305B" stroke="#06305B" stroke-miterlimit="10" d="M461.4,349.9c0,0-10.5-3.4-18.6-2.1c0,0-4,2.6,0.7,4.8
		C443.4,352.6,452.7,353.5,461.4,349.9z"/>
	<path fill="#06305B" stroke="#06305B" stroke-miterlimit="10" d="M419.1,364c0,0,5.2-2.8,7.6-6.4c0,0,0.5-2.5-2.1-1.5
		C424.7,356.1,420.9,359.3,419.1,364z"/>
	<path fill="#06305B" stroke="#06305B" stroke-miterlimit="10" d="M443.9,337.2c0,0-5.2,2.8-7.6,6.4c0,0-0.5,2.5,2.1,1.5
		C438.3,345.1,442.1,341.9,443.9,337.2z"/>
	<path fill="#06305B" stroke="#06305B" stroke-miterlimit="10" d="M443.9,364.1c0,0-2.2-5.5-5.5-8.3c0,0-2.4-0.8-1.7,1.9
		C436.7,357.7,439.5,361.8,443.9,364.1z"/>
	<path fill="#06305B" stroke="#06305B" stroke-miterlimit="10" d="M419.1,337c0,0,2.5,5.3,5.9,8c0,0,2.5,0.6,1.6-2
		C426.6,343,423.6,339.1,419.1,337z"/>
	<circle fill="#06305B" stroke="#06305B" stroke-miterlimit="10" cx="431.5" cy="350.6" r="1.3"/>
</g>
</svg>
